<svg xmlns="http://www.w3.org/2000/svg" xmlns:xlink="http://www.w3.org/1999/xlink" width="500" zoomAndPan="magnify" viewBox="0 0 375 374.999991" height="500" preserveAspectRatio="xMidYMid meet" version="1.0"><defs><clipPath id="be833906d6"><path d="M 0.46875 0 L 374.71875 0 L 374.71875 375 L 0.46875 375 Z M 0.46875 0 " clip-rule="nonzero"/></clipPath></defs><g clip-path="url(#be833906d6)"><path fill="#ffffff" d="M 259.894531 264.636719 C 265.449219 271.628906 258.769531 279.371094 255.585938 282.304688 C 251.46875 286.234375 246.160156 289.417969 239.667969 291.855469 C 236.359375 293.101562 233.738281 293.851562 231.242188 294.164062 L 229.746094 294.351562 C 223.378906 295.039062 216.199219 294.414062 207.773438 292.539062 C 191.105469 288.984375 175.625 278.871094 160.394531 261.703125 C 158.085938 259.457031 140.730469 242.042969 129.621094 217.507812 C 118.445312 192.601562 117.074219 168.257812 116.949219 165.574219 C 114.203125 142.167969 117.011719 123.875 125.25 109.082031 C 129.808594 100.96875 134.550781 94.789062 139.667969 90.417969 C 141.480469 88.796875 143.851562 87.296875 147.035156 85.613281 C 152.964844 82.617188 158.769531 80.742188 164.203125 80.179688 C 167.632812 79.871094 179.183594 79.558594 180.679688 88.609375 L 182.179688 104.214844 C 182.867188 111.144531 184.363281 128.683594 184.363281 128.683594 C 185.488281 139.792969 184.175781 145.660156 173.378906 147.160156 C 172.566406 147.222656 171.753906 147.097656 170.753906 147.097656 C 168.320312 146.847656 166.136719 146.722656 164.203125 146.722656 L 156.335938 146.785156 L 156.523438 154.652344 C 156.710938 163.453125 159.832031 186.113281 166.511719 201.03125 C 172.691406 214.761719 186.984375 232.304688 194.539062 239.230469 L 200.34375 244.539062 L 205.585938 238.609375 C 206.773438 237.234375 208.082031 235.550781 208.832031 234.550781 C 210.144531 232.804688 210.769531 231.929688 211.328125 231.492188 C 214.078125 229.121094 216.636719 227.808594 219.195312 227.558594 C 224.1875 227.058594 227.933594 230.679688 232.304688 235.488281 Z M 375 187.734375 C 375 291.292969 291.167969 375.3125 187.734375 375.3125 C 84.300781 375.3125 0.46875 291.292969 0.46875 187.734375 C 0.46875 84.175781 84.300781 0.15625 187.734375 0.15625 C 291.167969 0.15625 375 84.175781 375 187.734375 Z M 346.535156 187.734375 C 346.535156 99.90625 275.4375 28.683594 187.734375 28.683594 C 100.03125 28.683594 28.933594 99.90625 28.933594 187.734375 C 28.933594 275.5625 100.03125 346.785156 187.734375 346.785156 C 275.4375 346.785156 346.535156 275.5625 346.535156 187.734375 Z M 346.535156 187.734375 " fill-opacity="1" fill-rule="nonzero"/></g></svg>