<svg xmlns="http://www.w3.org/2000/svg" xmlns:xlink="http://www.w3.org/1999/xlink" width="500" zoomAndPan="magnify" viewBox="0 0 375 374.999991" height="500" preserveAspectRatio="xMidYMid meet" version="1.0"><path fill="#e8ac3e" d="M 187.480469 0 C 137.40625 0 90.324219 19.503906 54.914062 54.914062 C 19.503906 90.324219 0 137.40625 0 187.484375 C 0 237.5625 19.503906 284.640625 54.914062 320.050781 C 90.324219 355.464844 137.40625 374.964844 187.484375 374.964844 C 237.5625 374.964844 284.644531 355.464844 320.054688 320.050781 C 355.464844 284.640625 374.964844 237.5625 374.964844 187.480469 C 374.964844 137.402344 355.464844 90.324219 320.050781 54.910156 C 284.640625 19.503906 237.5625 0 187.480469 0 Z M 187.484375 350.253906 L 187.480469 350.253906 C 97.730469 350.253906 24.710938 277.234375 24.710938 187.480469 C 24.710938 97.730469 97.730469 24.714844 187.484375 24.714844 C 277.234375 24.714844 350.253906 97.730469 350.253906 187.484375 C 350.253906 277.234375 277.234375 350.253906 187.484375 350.253906 Z M 187.484375 350.253906 " fill-opacity="1" fill-rule="nonzero"/><path fill="#e8ac3e" d="M 263.203125 111.761719 C 258.378906 106.9375 250.554688 106.9375 245.730469 111.761719 L 187.484375 170.007812 L 129.234375 111.761719 C 124.410156 106.9375 116.585938 106.9375 111.761719 111.761719 C 106.9375 116.585938 106.9375 124.410156 111.761719 129.234375 L 170.007812 187.484375 L 111.761719 245.730469 C 106.9375 250.554688 106.9375 258.378906 111.761719 263.203125 C 114.171875 265.617188 117.335938 266.824219 120.496094 266.824219 C 123.660156 266.824219 126.824219 265.617188 129.234375 263.203125 L 187.484375 204.957031 L 245.730469 263.203125 C 248.144531 265.617188 251.304688 266.824219 254.46875 266.824219 C 257.628906 266.824219 260.792969 265.617188 263.203125 263.203125 C 268.03125 258.378906 268.03125 250.554688 263.203125 245.730469 L 204.957031 187.484375 L 263.203125 129.234375 C 268.03125 124.410156 268.03125 116.585938 263.203125 111.761719 Z M 263.203125 111.761719 " fill-opacity="1" fill-rule="nonzero"/></svg>