<svg xmlns="http://www.w3.org/2000/svg" xmlns:xlink="http://www.w3.org/1999/xlink" width="500" zoomAndPan="magnify" viewBox="0 0 375 374.999991" height="500" preserveAspectRatio="xMidYMid meet" version="1.0"><path fill="#e8ac3e" d="M 187.5 0 C 83.945312 0 0 83.945312 0 187.5 C 0 291.050781 83.945312 375 187.5 375 C 291.050781 375 375 291.050781 375 187.5 C 375 83.945312 291.050781 0 187.5 0 Z M 187.5 27.203125 C 275.886719 27.203125 347.796875 99.109375 347.796875 187.5 C 347.796875 275.886719 275.886719 347.796875 187.5 347.796875 C 99.109375 347.796875 27.203125 275.886719 27.203125 187.5 C 27.203125 99.109375 99.109375 27.203125 187.5 27.203125 " fill-opacity="1" fill-rule="nonzero"/><path fill="#e8ac3e" d="M 257.070312 201.097656 L 117.925781 201.097656 C 110.414062 201.097656 104.324219 195.011719 104.324219 187.496094 C 104.324219 179.984375 110.414062 173.894531 117.925781 173.894531 L 257.070312 173.894531 C 264.585938 173.894531 270.671875 179.984375 270.671875 187.496094 C 270.671875 195.011719 264.585938 201.097656 257.070312 201.097656 " fill-opacity="1" fill-rule="nonzero"/><path fill="#e8ac3e" d="M 257.070312 137.625 L 117.925781 137.625 C 110.414062 137.625 104.324219 131.539062 104.324219 124.027344 C 104.324219 116.515625 110.414062 110.425781 117.925781 110.425781 L 257.070312 110.425781 C 264.585938 110.425781 270.671875 116.515625 270.671875 124.027344 C 270.671875 131.539062 264.585938 137.625 257.070312 137.625 " fill-opacity="1" fill-rule="nonzero"/><path fill="#e8ac3e" d="M 257.070312 264.570312 L 117.925781 264.570312 C 110.414062 264.570312 104.324219 258.480469 104.324219 250.96875 C 104.324219 243.453125 110.414062 237.367188 117.925781 237.367188 L 257.070312 237.367188 C 264.585938 237.367188 270.671875 243.453125 270.671875 250.96875 C 270.671875 258.480469 264.585938 264.570312 257.070312 264.570312 " fill-opacity="1" fill-rule="nonzero"/></svg>