<svg xmlns="http://www.w3.org/2000/svg" xmlns:xlink="http://www.w3.org/1999/xlink" width="500" zoomAndPan="magnify" viewBox="0 0 375 374.999991" height="500" preserveAspectRatio="xMidYMid meet" version="1.0"><defs><clipPath id="b6ca0319ac"><path d="M 37.5 5 L 329 5 L 329 373 L 37.5 373 Z M 37.5 5 " clip-rule="nonzero"/></clipPath></defs><g clip-path="url(#b6ca0319ac)"><path fill="#ff3333" d="M 326.871094 175.898438 C 313.492188 285.914062 212 355.683594 187.992188 370.753906 C 184.871094 372.710938 180.976562 372.726562 177.855469 370.765625 C 152.183594 354.65625 37.5 275.746094 37.5 151.8125 C 37.5 68.753906 106.722656 1.875 190.429688 6.105469 C 276.339844 10.445312 337.285156 90.230469 326.871094 175.898438 Z M 326.871094 175.898438 " fill-opacity="1" fill-rule="nonzero"/></g><path fill="#ffffff" d="M 302.761719 151.179688 C 302.761719 153.144531 302.714844 155.105469 302.617188 157.066406 C 302.523438 159.027344 302.378906 160.988281 302.183594 162.941406 C 301.992188 164.894531 301.753906 166.84375 301.464844 168.789062 C 301.175781 170.730469 300.839844 172.664062 300.457031 174.589844 C 300.074219 176.515625 299.644531 178.433594 299.167969 180.335938 C 298.691406 182.242188 298.167969 184.132812 297.597656 186.015625 C 297.027344 187.894531 296.410156 189.757812 295.75 191.605469 C 295.085938 193.457031 294.378906 195.289062 293.628906 197.101562 C 292.878906 198.914062 292.082031 200.710938 291.242188 202.484375 C 290.402344 204.261719 289.519531 206.015625 288.59375 207.746094 C 287.667969 209.480469 286.699219 211.1875 285.691406 212.871094 C 284.679688 214.554688 283.628906 216.214844 282.539062 217.847656 C 281.449219 219.480469 280.316406 221.085938 279.148438 222.664062 C 277.976562 224.242188 276.769531 225.789062 275.523438 227.308594 C 274.277344 228.824219 272.996094 230.3125 271.675781 231.765625 C 270.359375 233.222656 269.003906 234.644531 267.617188 236.03125 C 266.226562 237.421875 264.804688 238.773438 263.351562 240.09375 C 261.894531 241.414062 260.410156 242.695312 258.890625 243.941406 C 257.371094 245.1875 255.824219 246.394531 254.246094 247.5625 C 252.667969 248.734375 251.066406 249.863281 249.429688 250.957031 C 247.796875 252.046875 246.140625 253.097656 244.457031 254.105469 C 242.769531 255.117188 241.0625 256.085938 239.332031 257.011719 C 237.597656 257.9375 235.84375 258.820312 234.070312 259.660156 C 232.292969 260.496094 230.5 261.292969 228.683594 262.046875 C 226.871094 262.796875 225.039062 263.503906 223.191406 264.164062 C 221.339844 264.828125 219.476562 265.441406 217.597656 266.011719 C 215.71875 266.582031 213.824219 267.105469 211.921875 267.582031 C 210.015625 268.058594 208.101562 268.492188 206.175781 268.875 C 204.246094 269.257812 202.3125 269.59375 200.371094 269.878906 C 198.429688 270.167969 196.480469 270.410156 194.523438 270.601562 C 192.570312 270.792969 190.613281 270.9375 188.652344 271.035156 C 186.691406 271.132812 184.726562 271.179688 182.761719 271.179688 C 180.800781 271.179688 178.835938 271.132812 176.875 271.035156 C 174.914062 270.9375 172.957031 270.792969 171 270.601562 C 169.046875 270.410156 167.097656 270.167969 165.15625 269.878906 C 163.210938 269.59375 161.277344 269.257812 159.351562 268.875 C 157.425781 268.492188 155.511719 268.058594 153.605469 267.582031 C 151.699219 267.105469 149.808594 266.582031 147.929688 266.011719 C 146.050781 265.441406 144.183594 264.828125 142.335938 264.164062 C 140.488281 263.503906 138.65625 262.796875 136.839844 262.046875 C 135.027344 261.292969 133.230469 260.496094 131.457031 259.660156 C 129.679688 258.820312 127.925781 257.9375 126.195312 257.011719 C 124.464844 256.085938 122.753906 255.117188 121.070312 254.105469 C 119.386719 253.097656 117.726562 252.046875 116.09375 250.957031 C 114.460938 249.863281 112.855469 248.734375 111.277344 247.5625 C 109.703125 246.394531 108.152344 245.1875 106.636719 243.941406 C 105.117188 242.695312 103.632812 241.414062 102.175781 240.09375 C 100.722656 238.773438 99.300781 237.421875 97.910156 236.03125 C 96.523438 234.644531 95.167969 233.222656 93.847656 231.765625 C 92.53125 230.3125 91.246094 228.824219 90 227.308594 C 88.757812 225.789062 87.546875 224.242188 86.378906 222.664062 C 85.207031 221.085938 84.078125 219.480469 82.988281 217.847656 C 81.894531 216.214844 80.84375 214.554688 79.835938 212.871094 C 78.824219 211.1875 77.859375 209.480469 76.933594 207.746094 C 76.007812 206.015625 75.125 204.261719 74.285156 202.484375 C 73.445312 200.710938 72.648438 198.914062 71.898438 197.101562 C 71.144531 195.289062 70.441406 193.457031 69.777344 191.605469 C 69.117188 189.757812 68.5 187.894531 67.929688 186.015625 C 67.359375 184.132812 66.835938 182.242188 66.359375 180.335938 C 65.882812 178.433594 65.453125 176.515625 65.070312 174.589844 C 64.6875 172.664062 64.351562 170.730469 64.0625 168.789062 C 63.773438 166.84375 63.535156 164.894531 63.339844 162.941406 C 63.148438 160.988281 63.003906 159.027344 62.90625 157.066406 C 62.8125 155.105469 62.761719 153.144531 62.761719 151.179688 C 62.761719 149.214844 62.8125 147.253906 62.90625 145.292969 C 63.003906 143.328125 63.148438 141.371094 63.339844 139.417969 C 63.535156 137.464844 63.773438 135.515625 64.0625 133.570312 C 64.351562 131.628906 64.6875 129.695312 65.070312 127.769531 C 65.453125 125.84375 65.882812 123.925781 66.359375 122.023438 C 66.835938 120.117188 67.359375 118.226562 67.929688 116.34375 C 68.5 114.464844 69.117188 112.601562 69.777344 110.753906 C 70.441406 108.902344 71.144531 107.070312 71.898438 105.257812 C 72.648438 103.441406 73.445312 101.648438 74.285156 99.871094 C 75.125 98.097656 76.007812 96.34375 76.933594 94.613281 C 77.859375 92.878906 78.824219 91.171875 79.835938 89.488281 C 80.84375 87.804688 81.894531 86.144531 82.988281 84.511719 C 84.078125 82.878906 85.207031 81.273438 86.378906 79.695312 C 87.546875 78.117188 88.757812 76.570312 90 75.050781 C 91.246094 73.535156 92.53125 72.046875 93.847656 70.59375 C 95.167969 69.136719 96.523438 67.714844 97.910156 66.328125 C 99.300781 64.9375 100.722656 63.585938 102.175781 62.265625 C 103.632812 60.945312 105.117188 59.664062 106.636719 58.417969 C 108.152344 57.171875 109.703125 55.964844 111.277344 54.792969 C 112.855469 53.625 114.460938 52.496094 116.09375 51.402344 C 117.726562 50.3125 119.386719 49.261719 121.070312 48.253906 C 122.753906 47.242188 124.464844 46.273438 126.195312 45.347656 C 127.925781 44.421875 129.679688 43.539062 131.457031 42.699219 C 133.230469 41.859375 135.027344 41.066406 136.839844 40.3125 C 138.65625 39.5625 140.488281 38.855469 142.335938 38.195312 C 144.183594 37.53125 146.050781 36.917969 147.929688 36.347656 C 149.808594 35.777344 151.699219 35.253906 153.605469 34.777344 C 155.511719 34.296875 157.425781 33.867188 159.351562 33.484375 C 161.277344 33.101562 163.210938 32.765625 165.15625 32.476562 C 167.097656 32.191406 169.046875 31.949219 171 31.757812 C 172.957031 31.566406 174.914062 31.421875 176.875 31.324219 C 178.835938 31.226562 180.800781 31.179688 182.761719 31.179688 C 184.726562 31.179688 186.691406 31.226562 188.652344 31.324219 C 190.613281 31.421875 192.570312 31.566406 194.523438 31.757812 C 196.480469 31.949219 198.429688 32.191406 200.371094 32.476562 C 202.3125 32.765625 204.246094 33.101562 206.175781 33.484375 C 208.101562 33.867188 210.015625 34.296875 211.921875 34.777344 C 213.824219 35.253906 215.71875 35.777344 217.597656 36.347656 C 219.476562 36.917969 221.339844 37.53125 223.191406 38.195312 C 225.039062 38.855469 226.871094 39.5625 228.683594 40.3125 C 230.5 41.066406 232.292969 41.859375 234.070312 42.699219 C 235.84375 43.539062 237.597656 44.421875 239.332031 45.347656 C 241.0625 46.273438 242.769531 47.242188 244.457031 48.253906 C 246.140625 49.261719 247.796875 50.3125 249.429688 51.402344 C 251.066406 52.496094 252.667969 53.625 254.246094 54.792969 C 255.824219 55.964844 257.371094 57.171875 258.890625 58.417969 C 260.410156 59.664062 261.894531 60.945312 263.351562 62.265625 C 264.804688 63.585938 266.226562 64.9375 267.617188 66.328125 C 269.003906 67.714844 270.359375 69.136719 271.675781 70.59375 C 272.996094 72.046875 274.277344 73.535156 275.523438 75.050781 C 276.769531 76.570312 277.976562 78.117188 279.148438 79.695312 C 280.316406 81.273438 281.449219 82.878906 282.539062 84.511719 C 283.628906 86.144531 284.679688 87.804688 285.691406 89.488281 C 286.699219 91.171875 287.667969 92.878906 288.59375 94.613281 C 289.519531 96.34375 290.402344 98.097656 291.242188 99.871094 C 292.082031 101.648438 292.878906 103.441406 293.628906 105.257812 C 294.378906 107.070312 295.085938 108.902344 295.75 110.753906 C 296.410156 112.601562 297.027344 114.464844 297.597656 116.34375 C 298.167969 118.226562 298.691406 120.117188 299.167969 122.023438 C 299.644531 123.925781 300.074219 125.84375 300.457031 127.769531 C 300.839844 129.695312 301.175781 131.628906 301.464844 133.570312 C 301.753906 135.515625 301.992188 137.464844 302.183594 139.417969 C 302.378906 141.371094 302.523438 143.328125 302.617188 145.292969 C 302.714844 147.253906 302.761719 149.214844 302.761719 151.179688 Z M 302.761719 151.179688 " fill-opacity="1" fill-rule="nonzero"/><path fill="#f4ad3b" d="M 187.058594 123.894531 L 116.828125 194.0625 C 116.574219 194.316406 116.320312 194.820312 116.382812 195.199219 L 117.710938 214.589844 C 117.648438 215.472656 118.46875 216.296875 119.351562 216.230469 L 138.742188 217.558594 C 139.121094 217.621094 139.625 217.367188 139.878906 217.117188 L 146.195312 210.800781 C 146.574219 210.421875 146.699219 209.851562 146.636719 209.347656 L 144.742188 198.421875 L 155.667969 200.316406 C 156.171875 200.441406 156.742188 200.253906 157.058594 199.875 L 163.183594 193.8125 C 163.5625 193.433594 163.753906 192.863281 163.625 192.359375 L 161.730469 181.433594 L 172.65625 183.328125 C 173.164062 183.390625 173.730469 183.199219 174.109375 182.886719 L 180.238281 176.757812 C 180.550781 176.441406 180.742188 175.875 180.617188 175.367188 L 178.722656 164.441406 L 189.648438 166.335938 C 190.152344 166.402344 190.722656 166.210938 191.101562 165.894531 L 210.046875 146.886719 Z M 187.058594 123.894531 " fill-opacity="1" fill-rule="nonzero"/><path fill="#ea9a32" d="M 217.5 75.390625 C 194.828125 75.390625 176.449219 93.769531 176.449219 116.441406 C 176.449219 139.117188 194.828125 157.496094 217.5 157.496094 C 240.171875 157.496094 258.550781 139.117188 258.550781 116.441406 C 258.550781 93.769531 240.171875 75.390625 217.5 75.390625 Z M 229.5625 122.253906 C 224.636719 127.117188 216.617188 127.117188 211.691406 122.253906 C 206.828125 117.328125 206.828125 109.242188 211.691406 104.316406 C 216.617188 99.453125 224.636719 99.453125 229.5625 104.316406 C 234.488281 109.242188 234.488281 117.328125 229.5625 122.253906 Z M 229.5625 122.253906 " fill-opacity="1" fill-rule="nonzero"/><path fill="#ff3333" d="M 182.761719 277.496094 C 113.113281 277.496094 56.449219 220.832031 56.449219 151.179688 C 56.449219 81.527344 113.113281 24.863281 182.761719 24.863281 C 252.414062 24.863281 309.078125 81.527344 309.078125 151.179688 C 309.078125 220.832031 252.414062 277.496094 182.761719 277.496094 Z M 182.761719 37.496094 C 120.078125 37.496094 69.078125 88.496094 69.078125 151.179688 C 69.078125 213.863281 120.078125 264.863281 182.761719 264.863281 C 245.449219 264.863281 296.449219 213.863281 296.449219 151.179688 C 296.449219 88.496094 245.449219 37.496094 182.761719 37.496094 Z M 182.761719 37.496094 " fill-opacity="1" fill-rule="nonzero"/></svg>