<svg xmlns="http://www.w3.org/2000/svg" xmlns:xlink="http://www.w3.org/1999/xlink" width="500" zoomAndPan="magnify" viewBox="0 0 375 374.999991" height="500" preserveAspectRatio="xMidYMid meet" version="1.0"><defs><clipPath id="0171e8a748"><path d="M 102.640625 8 L 272.140625 8 L 272.140625 367 L 102.640625 367 Z M 102.640625 8 " clip-rule="nonzero"/></clipPath></defs><rect x="-37.5" width="450" fill="#ffffff" y="-37.499999" height="449.999989" fill-opacity="1"/><rect x="-37.5" width="450" fill="#3d5a98" y="-37.499999" height="449.999989" fill-opacity="1"/><g clip-path="url(#0171e8a748)"><path fill="#ffffff" d="M 233.039062 67.492188 L 272.140625 67.492188 L 272.140625 8.449219 L 222.210938 8.449219 L 222.210938 8.675781 C 156.558594 11.085938 143.023438 47.910156 141.894531 86.84375 L 141.746094 86.84375 L 141.746094 127.8125 L 102.640625 127.8125 L 102.640625 186.929688 L 141.746094 186.929688 L 141.746094 366.613281 L 211.90625 366.613281 L 211.90625 186.929688 L 262.214844 186.929688 L 272.140625 127.8125 L 211.90625 127.8125 L 211.90625 91.136719 C 211.90625 78.109375 220.628906 67.492188 233.039062 67.492188 Z M 233.039062 67.492188 " fill-opacity="1" fill-rule="nonzero"/></g></svg>