<svg xmlns="http://www.w3.org/2000/svg" xmlns:xlink="http://www.w3.org/1999/xlink" width="500" zoomAndPan="magnify" viewBox="0 0 375 374.999991" height="500" preserveAspectRatio="xMidYMid meet" version="1.0"><path fill="#e8ac3e" d="M 343.839844 17.136719 C 238.8125 49.90625 126.765625 94.707031 14.074219 136.273438 C 0.0078125 141.46875 0.113281 160.496094 14.289062 164.660156 C 47.035156 174.273438 79.910156 184.355469 112.792969 194.570312 C 114.925781 195.234375 117.238281 194.9375 119.121094 193.761719 C 171.691406 160.855469 224.667969 127.054688 276.085938 95.089844 C 278.746094 93.429688 281.648438 97.179688 279.335938 99.296875 C 237.566406 137.636719 194.132812 177.511719 151.351562 216.765625 C 148.605469 219.277344 148.113281 223.414062 150.164062 226.535156 C 177.726562 268.460938 205.199219 310.589844 230.917969 351.972656 C 237.449219 362.515625 252.90625 360.308594 257.558594 348.320312 C 297.773438 244.175781 340.121094 141.082031 370.398438 43.609375 C 375.007812 28.660156 358.765625 12.515625 343.839844 17.136719 Z M 343.839844 17.136719 " fill-opacity="1" fill-rule="nonzero"/><path fill="#e8ac3e" d="M 107.695312 227.003906 C 107.957031 256.144531 108.488281 285.289062 109.285156 314.429688 C 109.65625 326.882812 124.332031 333.796875 133.148438 325.503906 C 142.367188 316.859375 151.695312 308.132812 161.105469 299.359375 C 165.660156 295.117188 166.492188 288.089844 163.039062 282.777344 C 149.941406 262.628906 136.695312 242.476562 123.476562 222.421875 C 118.753906 215.257812 107.625 218.503906 107.703125 227.003906 Z M 107.695312 227.003906 " fill-opacity="1" fill-rule="nonzero"/></svg>