<svg xmlns="http://www.w3.org/2000/svg" xmlns:xlink="http://www.w3.org/1999/xlink" width="500" zoomAndPan="magnify" viewBox="0 0 375 374.999991" height="500" preserveAspectRatio="xMidYMid meet" version="1.0"><defs><clipPath id="deb7d40b4a"><path d="M 98.949219 0 L 275.949219 0 L 275.949219 375 L 98.949219 375 Z M 98.949219 0 " clip-rule="nonzero"/></clipPath></defs><g clip-path="url(#deb7d40b4a)"><path fill="#e8ac3e" d="M 235.1875 62.261719 L 276.042969 62.261719 L 276.042969 0.664062 L 223.875 0.664062 L 223.875 0.898438 C 155.285156 3.414062 141.140625 41.832031 139.960938 82.453125 L 139.804688 82.453125 L 139.804688 125.195312 L 98.949219 125.195312 L 98.949219 186.871094 L 139.804688 186.871094 L 139.804688 374.335938 L 213.109375 374.335938 L 213.109375 186.871094 L 265.671875 186.871094 L 276.042969 125.195312 L 213.109375 125.195312 L 213.109375 86.933594 C 213.109375 73.339844 222.222656 62.261719 235.1875 62.261719 Z M 235.1875 62.261719 " fill-opacity="1" fill-rule="nonzero"/></g></svg>