<svg xmlns="http://www.w3.org/2000/svg" xmlns:xlink="http://www.w3.org/1999/xlink" width="500" zoomAndPan="magnify" viewBox="0 0 375 374.999991" height="500" preserveAspectRatio="xMidYMid meet" version="1.0"><defs><clipPath id="7708488f14"><path d="M 2 1 L 375 1 L 375 371 L 2 371 Z M 2 1 " clip-rule="nonzero"/></clipPath><clipPath id="7a365793a2"><path d="M 420.316406 107.910156 L 97.867188 451.226562 L -64.496094 298.730469 L 257.953125 -44.585938 Z M 420.316406 107.910156 " clip-rule="nonzero"/></clipPath><clipPath id="4075b0866d"><path d="M 257.746094 -44.78125 L -64.703125 298.539062 L 97.664062 451.035156 L 420.113281 107.714844 Z M 257.746094 -44.78125 " clip-rule="nonzero"/></clipPath></defs><g clip-path="url(#7708488f14)"><g clip-path="url(#7a365793a2)"><g clip-path="url(#4075b0866d)"><path fill="#e8ac3e" d="M 2.472656 305.351562 L 155.441406 142.484375 L 155.441406 142.488281 C 145.445312 106.28125 154.003906 65.882812 181.601562 36.5 C 223.710938 -8.335938 294.195312 -10.546875 339.03125 31.5625 C 383.867188 73.675781 386.078125 144.160156 343.964844 188.996094 C 316.371094 218.375 276.585938 229.449219 239.824219 221.738281 L 239.824219 221.742188 L 208.730469 254.851562 L 157.425781 254.257812 L 161.261719 294.179688 L 121.800781 292.1875 L 126.304688 332.738281 L 84.304688 332.109375 L 89.386719 370.707031 L 10.554688 369.300781 Z M 315.207031 95.601562 C 325.21875 84.945312 324.695312 68.191406 314.035156 58.179688 C 303.375 48.171875 286.621094 48.695312 276.613281 59.355469 C 266.601562 70.011719 267.125 86.765625 277.785156 96.773438 C 288.445312 106.789062 305.199219 106.261719 315.207031 95.601562 Z M 315.207031 95.601562 " fill-opacity="1" fill-rule="nonzero"/></g></g></g></svg>