<svg xmlns="http://www.w3.org/2000/svg" xmlns:xlink="http://www.w3.org/1999/xlink" width="500" zoomAndPan="magnify" viewBox="0 0 375 374.999991" height="500" preserveAspectRatio="xMidYMid meet" version="1.0"><defs><clipPath id="2dcd724c04"><path d="M 56.628906 0 L 318.378906 0 L 318.378906 375 L 56.628906 375 Z M 56.628906 0 " clip-rule="nonzero"/></clipPath></defs><g clip-path="url(#2dcd724c04)"><path fill="#e8ac3e" d="M 187.503906 0.00390625 C 259.78125 0.00390625 318.375 58.597656 318.375 130.878906 C 318.375 156.027344 311.277344 179.511719 298.980469 199.457031 C 284.230469 223.886719 269.480469 248.320312 254.734375 272.753906 C 236.769531 301.953125 222.234375 325.582031 204.273438 354.78125 C 188.4375 380.523438 187.367188 381.15625 171.449219 355.28125 C 153.578125 326.226562 138.550781 301.804688 120.679688 272.753906 C 105.964844 248.59375 91.253906 224.4375 76.539062 200.28125 C 63.929688 180.160156 56.628906 156.375 56.628906 130.878906 C 56.628906 58.597656 115.222656 0.00390625 187.503906 0.00390625 Z M 187.503906 65.617188 C 219.90625 65.617188 246.171875 91.886719 246.171875 124.289062 C 246.171875 156.691406 219.90625 182.957031 187.503906 182.957031 C 155.097656 182.957031 128.832031 156.691406 128.832031 124.289062 C 128.832031 91.886719 155.101562 65.617188 187.503906 65.617188 Z M 187.503906 65.617188 " fill-opacity="1" fill-rule="evenodd"/></g></svg>