<svg xmlns="http://www.w3.org/2000/svg" xmlns:xlink="http://www.w3.org/1999/xlink" width="500" zoomAndPan="magnify" viewBox="0 0 375 374.999991" height="500" preserveAspectRatio="xMidYMid meet" version="1.0"><defs><clipPath id="43fa0a0594"><path d="M 96.5625 1 L 278.8125 1 L 278.8125 374 L 96.5625 374 Z M 96.5625 1 " clip-rule="nonzero"/></clipPath></defs><g clip-path="url(#43fa0a0594)"><path fill="#e8ac3e" d="M 254.925781 373.195312 L 120.457031 373.195312 C 107.351562 373.195312 96.726562 362.570312 96.726562 349.464844 L 96.726562 25.152344 C 96.726562 12.046875 107.351562 1.421875 120.457031 1.421875 L 254.929688 1.421875 C 268.03125 1.421875 278.660156 12.046875 278.660156 25.152344 L 278.660156 349.464844 C 278.65625 362.570312 268.03125 373.195312 254.925781 373.195312 Z M 187.691406 365.28125 C 196.429688 365.28125 203.511719 358.195312 203.511719 349.464844 C 203.511719 340.726562 196.429688 333.640625 187.691406 333.640625 C 178.957031 333.640625 171.875 340.726562 171.875 349.464844 C 171.875 358.195312 178.957031 365.28125 187.691406 365.28125 Z M 156.050781 21.199219 C 153.867188 21.199219 152.097656 22.964844 152.097656 25.152344 C 152.097656 27.335938 153.867188 29.105469 156.050781 29.105469 C 158.230469 29.105469 160.003906 27.339844 160.003906 25.152344 C 160.007812 22.964844 158.234375 21.199219 156.050781 21.199219 Z M 187.691406 5.378906 C 185.507812 5.378906 183.738281 7.148438 183.738281 9.332031 C 183.738281 11.515625 185.507812 13.289062 187.691406 13.289062 C 189.871094 13.289062 191.644531 11.519531 191.644531 9.332031 C 191.644531 7.148438 189.871094 5.378906 187.691406 5.378906 Z M 203.511719 21.199219 L 171.871094 21.199219 C 169.683594 21.199219 167.917969 22.964844 167.917969 25.152344 C 167.917969 27.335938 169.683594 29.105469 171.871094 29.105469 L 203.511719 29.105469 C 205.695312 29.105469 207.464844 27.339844 207.464844 25.152344 C 207.46875 22.964844 205.699219 21.199219 203.511719 21.199219 Z M 266.789062 40.972656 L 108.59375 40.972656 L 108.59375 325.734375 L 266.792969 325.734375 L 266.792969 40.972656 Z M 187.691406 337.597656 C 194.246094 337.597656 199.558594 342.910156 199.558594 349.464844 C 199.558594 356.011719 194.246094 361.332031 187.691406 361.332031 C 181.140625 361.332031 175.824219 356.011719 175.824219 349.464844 C 175.824219 342.910156 181.140625 337.597656 187.691406 337.597656 Z M 187.691406 337.597656 " fill-opacity="1" fill-rule="evenodd"/></g></svg>