<svg xmlns="http://www.w3.org/2000/svg" xmlns:xlink="http://www.w3.org/1999/xlink" width="500" zoomAndPan="magnify" viewBox="0 0 375 374.999991" height="500" preserveAspectRatio="xMidYMid meet" version="1.0"><defs><clipPath id="f176419512"><path d="M 50 1 L 315 1 L 315 374 L 50 374 Z M 50 1 " clip-rule="nonzero"/></clipPath><clipPath id="8f21366809"><path d="M 82.070312 -14.707031 L 389.707031 82.074219 L 292.925781 389.710938 L -14.707031 292.929688 Z M 82.070312 -14.707031 " clip-rule="nonzero"/></clipPath><clipPath id="075e7a93ea"><path d="M 82.070312 -14.707031 L 389.707031 82.074219 L 292.925781 389.710938 L -14.707031 292.929688 Z M 82.070312 -14.707031 " clip-rule="nonzero"/></clipPath></defs><g clip-path="url(#f176419512)"><g clip-path="url(#8f21366809)"><g clip-path="url(#075e7a93ea)"><path fill="#e8ac3e" d="M 314.847656 306.699219 C 315.207031 313.410156 314.488281 320.265625 312.566406 327.070312 C 312.410156 327.726562 312.210938 328.371094 312 329.039062 C 301.464844 362.527344 265.75 381.144531 232.261719 370.609375 C 95.863281 327.703125 20.078125 182.351562 62.988281 45.949219 C 73.523438 12.460938 109.234375 -6.160156 142.726562 4.375 C 143.390625 4.585938 144.035156 4.789062 144.660156 5.039062 C 151.339844 7.359375 157.398438 10.703125 162.691406 14.835938 L 154.449219 120.589844 C 154.433594 120.640625 154.402344 120.65625 154.34375 120.667969 L 106.675781 126.296875 L 106.539062 126.308594 C 107.34375 190.695312 138.980469 251.375 191.308594 288.898438 L 191.398438 288.789062 L 223.339844 252.917969 L 314.847656 306.699219 " fill-opacity="1" fill-rule="nonzero"/></g></g></g></svg>