<svg xmlns="http://www.w3.org/2000/svg" xmlns:xlink="http://www.w3.org/1999/xlink" width="500" zoomAndPan="magnify" viewBox="0 0 375 374.999991" height="500" preserveAspectRatio="xMidYMid meet" version="1.0"><defs><clipPath id="9d416e223b"><path d="M 1.171875 2 L 373.921875 2 L 373.921875 145 L 1.171875 145 Z M 1.171875 2 " clip-rule="nonzero"/></clipPath><clipPath id="8ca929ed89"><path d="M 6.058594 139.308594 L 373.847656 139.308594 L 373.847656 220.78125 L 6.058594 220.78125 Z M 6.058594 139.308594 " clip-rule="nonzero"/></clipPath><clipPath id="3834767fd3"><path d="M 1.171875 141 L 166 141 L 166 369 L 1.171875 369 Z M 1.171875 141 " clip-rule="nonzero"/></clipPath><clipPath id="802a348205"><path d="M 213 142 L 373.847656 142 L 373.847656 366.617188 L 213 366.617188 Z M 213 142 " clip-rule="nonzero"/></clipPath><clipPath id="0bb3a3f80e"><path d="M 10 197.15625 L 367.800781 197.15625 L 367.800781 374.839844 L 10 374.839844 Z M 10 197.15625 " clip-rule="nonzero"/></clipPath><clipPath id="11fbff33af"><path d="M 10 206 L 367.800781 206 L 367.800781 374.839844 L 10 374.839844 Z M 10 206 " clip-rule="nonzero"/></clipPath></defs><g clip-path="url(#9d416e223b)"><path fill="#d0a339" d="M 370.171875 131.3125 C 369.066406 130.160156 367.714844 128.964844 366.09375 127.742188 L 355.582031 119.78125 L 209.664062 9.351562 C 197.476562 0.128906 177.542969 0.128906 165.347656 9.351562 L 19.4375 119.78125 L 8.921875 127.742188 C 7.300781 128.964844 5.949219 130.160156 4.847656 131.3125 C 3.28125 133.925781 2.167969 136.828125 1.605469 139.925781 C 2.859375 142.757812 7.273438 144.507812 14.644531 144.507812 L 360.375 144.507812 C 367.75 144.507812 372.15625 142.757812 373.414062 139.925781 C 372.851562 136.828125 371.734375 133.925781 370.171875 131.3125 " fill-opacity="1" fill-rule="nonzero"/></g><g clip-path="url(#8ca929ed89)"><path fill="#d0a339" d="M 373.726562 142.1875 C 373.65625 141.421875 373.542969 140.671875 373.414062 139.925781 C 372.15625 142.757812 367.75 144.507812 360.375 144.507812 L 14.644531 144.507812 C 11.480469 144.507812 8.863281 144.1875 6.808594 143.59375 L 191.289062 220.671875 L 373.726562 142.1875 " fill-opacity="1" fill-rule="nonzero"/></g><path fill="#3d5a98" d="M 329.3125 261.65625 C 329.3125 270.226562 322.367188 277.183594 313.789062 277.183594 L 54.988281 277.183594 C 46.410156 277.183594 39.457031 270.226562 39.457031 261.65625 L 39.457031 48.148438 C 39.457031 39.570312 46.410156 32.617188 54.988281 32.617188 L 313.789062 32.617188 C 322.367188 32.617188 329.3125 39.570312 329.3125 48.148438 L 329.3125 261.65625 " fill-opacity="1" fill-rule="nonzero"/><path fill="#ffffff" d="M 206.324219 124.914062 C 204.28125 124.410156 201.472656 123.894531 198.421875 123.894531 C 181.597656 123.894531 168.339844 140.464844 168.339844 160.089844 C 168.339844 169.777344 172.675781 175.890625 181.082031 175.890625 C 190.519531 175.890625 200.457031 163.917969 202.75 149.132812 Z M 229.003906 230.183594 C 213.710938 237.066406 200.457031 239.363281 182.105469 239.363281 C 139.789062 239.363281 102.578125 209.023438 102.578125 159.074219 C 102.578125 107.074219 140.558594 61.964844 197.90625 61.964844 C 243.023438 61.964844 275.136719 92.800781 275.136719 135.621094 C 275.136719 173.089844 254.238281 196.535156 226.710938 196.535156 C 214.730469 196.535156 206.066406 190.167969 204.789062 176.914062 L 204.28125 176.914062 C 196.125 189.65625 184.90625 196.535156 171.140625 196.535156 C 154.832031 196.535156 142.59375 184.050781 142.59375 163.148438 C 142.59375 131.796875 165.792969 103.761719 202.492188 103.761719 C 213.710938 103.761719 226.453125 106.5625 232.824219 109.882812 L 225.179688 157.285156 C 222.632812 172.328125 224.417969 179.207031 231.550781 179.460938 C 242.515625 179.972656 256.277344 165.957031 256.277344 136.386719 C 256.277344 103 234.863281 77.515625 195.363281 77.515625 C 156.105469 77.515625 122.207031 107.84375 122.207031 156.78125 C 122.207031 199.59375 149.226562 223.558594 187.203125 223.558594 C 200.203125 223.558594 214.214844 220.757812 224.417969 215.65625 L 229.003906 230.183594 " fill-opacity="1" fill-rule="nonzero"/><g clip-path="url(#3834767fd3)"><path fill="#eecf6d" d="M 6.808594 143.59375 C 5.707031 143.269531 4.769531 142.882812 3.988281 142.414062 L 1.402344 141.335938 C 1.273438 142.378906 1.171875 143.429688 1.171875 144.507812 L 1.171875 348.960938 C 1.171875 356.6875 4.621094 363.636719 10.042969 368.390625 L 165.84375 210.042969 L 6.808594 143.59375 " fill-opacity="1" fill-rule="nonzero"/></g><g clip-path="url(#802a348205)"><path fill="#eecf6d" d="M 373.84375 348.960938 L 373.84375 144.507812 C 373.84375 143.726562 373.796875 142.949219 373.726562 142.1875 L 213.34375 211.191406 L 367.257812 366.117188 C 371.339844 361.539062 373.84375 355.535156 373.84375 348.960938 " fill-opacity="1" fill-rule="nonzero"/></g><g clip-path="url(#0bb3a3f80e)"><path fill="#d0a339" d="M 213.34375 211.191406 L 207.152344 204.96875 C 197.125 194.867188 180.746094 194.902344 170.761719 205.054688 L 165.84375 210.042969 L 10.042969 368.390625 C 14.605469 372.390625 20.546875 374.839844 27.050781 374.839844 L 347.960938 374.839844 C 355.621094 374.839844 362.519531 371.441406 367.257812 366.117188 L 213.34375 211.191406 " fill-opacity="1" fill-rule="nonzero"/></g><g clip-path="url(#11fbff33af)"><path fill="#eecf6d" d="M 213.34375 219.148438 L 207.152344 213.21875 C 197.125 203.613281 180.746094 203.65625 170.761719 213.300781 L 165.84375 218.058594 L 10.042969 368.707031 C 14.605469 372.503906 20.546875 374.839844 27.050781 374.839844 L 347.960938 374.839844 C 355.621094 374.839844 362.519531 371.609375 367.257812 366.539062 L 213.34375 219.148438 " fill-opacity="1" fill-rule="nonzero"/></g></svg>