<svg xmlns="http://www.w3.org/2000/svg" xmlns:xlink="http://www.w3.org/1999/xlink" width="500" zoomAndPan="magnify" viewBox="0 0 375 374.999991" height="500" preserveAspectRatio="xMidYMid meet" version="1.0"><defs><clipPath id="368de2c588"><path d="M 4.71875 4.71875 L 369.96875 4.71875 L 369.96875 369.96875 L 4.71875 369.96875 Z M 4.71875 4.71875 " clip-rule="nonzero"/></clipPath><clipPath id="8324e139fe"><path d="M 152 59 L 314 59 L 314 369.96875 L 152 369.96875 Z M 152 59 " clip-rule="nonzero"/></clipPath></defs><g clip-path="url(#368de2c588)"><path fill="#3d5a98" d="M 349.785156 369.941406 C 360.914062 369.941406 369.941406 360.917969 369.941406 349.785156 L 369.941406 24.878906 C 369.941406 13.742188 360.914062 4.71875 349.785156 4.71875 L 24.878906 4.71875 C 13.742188 4.71875 4.71875 13.742188 4.71875 24.878906 L 4.71875 349.785156 C 4.71875 360.917969 13.742188 369.941406 24.878906 369.941406 Z M 349.785156 369.941406 " fill-opacity="1" fill-rule="nonzero"/></g><g clip-path="url(#8324e139fe)"><path fill="#ffffff" d="M 256.714844 369.941406 L 256.714844 228.507812 L 304.1875 228.507812 L 311.296875 173.390625 L 256.714844 173.390625 L 256.714844 138.199219 C 256.714844 122.242188 261.148438 111.363281 284.03125 111.363281 L 313.21875 111.351562 L 313.21875 62.054688 C 308.171875 61.382812 290.847656 59.882812 270.6875 59.882812 C 228.605469 59.882812 199.796875 85.566406 199.796875 132.742188 L 199.796875 173.390625 L 152.199219 173.390625 L 152.199219 228.507812 L 199.796875 228.507812 L 199.796875 369.941406 Z M 256.714844 369.941406 " fill-opacity="1" fill-rule="nonzero"/></g></svg>