<svg xmlns="http://www.w3.org/2000/svg" xmlns:xlink="http://www.w3.org/1999/xlink" width="500" zoomAndPan="magnify" viewBox="0 0 375 374.999991" height="500" preserveAspectRatio="xMidYMid meet" version="1.0"><path fill="#e8ac3e" d="M 187.441406 375 C 290.757812 375 375 290.742188 375 187.558594 C 375 84.242188 290.742188 0 187.441406 0 C 84.257812 0 0 84.257812 0 187.558594 C 0 290.742188 84.257812 375 187.441406 375 Z M 187.441406 375 " fill-opacity="1" fill-rule="evenodd"/><path fill="#0a0a0a" d="M 299.382812 189.761719 C 301.179688 168.253906 294.097656 139.519531 282.25 121.484375 L 278.894531 116.328125 C 264.34375 93.914062 238.316406 76.394531 212.675781 69.441406 L 207.394531 68.277344 C 203.652344 68.019531 201.089844 72.523438 202.371094 75.878906 C 203.652344 79.363281 206.359375 78.972656 209.453125 79.734375 C 216.664062 81.792969 224.265625 84.628906 230.960938 88.113281 C 238.042969 91.972656 244.996094 96.234375 251.183594 101.644531 C 267.292969 115.679688 278.363281 132.4375 284.425781 153.050781 C 288.671875 167.347656 290.097656 185.253906 287.261719 199.9375 C 286.742188 202.902344 286.09375 205.480469 288.542969 207.667969 C 290.210938 209.207031 293.175781 209.335938 295.105469 208.1875 C 297.941406 206.515625 297.550781 203.421875 298.199219 200.457031 Z M 184.996094 294.875 C 206.386719 305.570312 230.730469 311.242188 253.273438 302.347656 C 262.414062 298.734375 285.476562 283.285156 279.429688 269.625 C 277.109375 264.082031 255.589844 240.761719 251.730469 236.515625 C 248.25 232.773438 240.402344 223.113281 236.011719 221.703125 C 226.351562 218.21875 213.339844 229.953125 207.925781 237.8125 C 205.867188 240.519531 205.21875 248.378906 203.421875 249.269531 C 186.9375 257.90625 130.898438 191.6875 128.96875 171.722656 C 128.0625 163.605469 129.226562 163.863281 135.792969 163.34375 C 141.980469 162.695312 144.671875 160.121094 148.15625 157.15625 C 152.144531 153.542969 159.488281 148.273438 160.910156 143.117188 C 164.523438 129.328125 131.675781 99.574219 123.296875 90.300781 C 119.941406 87.078125 119.683594 85.667969 112.859375 85.019531 C 107.964844 84.628906 104.742188 86.820312 102.164062 88.878906 L 90.042969 99.703125 C 82.960938 107.304688 79.476562 114.386719 77.03125 125.730469 C 73.042969 143.765625 76.640625 160.378906 81.925781 177.136719 C 96.738281 224.796875 138.355469 265.378906 179.957031 292.167969 C 181.769531 293.074219 183.050781 293.839844 184.996094 294.875 Z M 232.660156 192.335938 C 235.363281 181.898438 232.660156 168.5 227.894531 158.96875 C 221.070312 145.4375 209.597656 137.460938 195.433594 132.941406 C 184.347656 129.457031 184.21875 141.707031 189.761719 142.859375 C 198.527344 144.53125 206.632812 148.921875 212.5625 155.613281 C 220.421875 164.625 224.667969 177.507812 222.351562 189.371094 C 222.09375 190.652344 221.574219 192.464844 221.832031 193.617188 C 222.609375 196.582031 224.929688 197.863281 227.894531 197.734375 C 229.175781 197.734375 230.46875 196.957031 231.378906 196.066406 C 232.527344 194.785156 232.269531 194.007812 232.660156 192.335938 Z M 266.402344 189.371094 C 267.566406 170.3125 262.917969 151.367188 252.105469 135.519531 C 241.929688 120.445312 227.246094 109.363281 210.113281 103.1875 C 206.632812 102.019531 199.9375 98.941406 196.453125 101.257812 C 193.230469 103.316406 193.101562 108.726562 196.84375 110.527344 L 204.703125 112.714844 C 204.703125 112.714844 204.703125 112.714844 204.832031 112.714844 C 207.667969 113.753906 210.375 114.773438 213.082031 116.070312 C 241.945312 129.214844 258.296875 158.96875 255.460938 190.277344 C 255.203125 192.984375 254.425781 195.949219 254.292969 198.527344 C 254.035156 202.644531 259.707031 204.457031 262.671875 202.644531 C 265.507812 200.84375 265.636719 196.210938 266.027344 193.242188 C 266.140625 191.949219 266.273438 190.652344 266.402344 189.371094 Z M 266.402344 189.371094 " fill-opacity="1" fill-rule="evenodd"/></svg>